# xmcd
#
# Track frame offsets:
#	150
#	20839
#	44393
#	58879
#	77419
#	92670
#
# Disc length: 1422 seconds
#
# Revision: 0
# Processed by: cddbd v1.5.2PL0 Copyright (c) Steve Scherf et al.
# Submitted via: VUPlayer 2.49
#
DISCID=46058c06
DTITLE=Damn Fine Gentlemen - Red Belly Black
DYEAR=2010
DGENRE=Blues
TTITLE0=Wanted Man
TTITLE1=Why Do I Have These Dreams Of Different Ways To Die
TTITLE2=Hit Me With A Stone
TTITLE3=Long Time Gone
TTITLE4=Doing Alright
TTITLE5=180B
EXTD=
EXTT0=
EXTT1=
EXTT2=
EXTT3=
EXTT4=
EXTT5=
PLAYORDER=
